<svg width="900" height="900" viewBox="0 0 900 900" fill="none" xmlns="http://www.w3.org/2000/svg">
  <defs>
    <linearGradient id="iceA" x1="0" y1="0" x2="1" y2="1">
      <stop offset="0%" stop-color="white" stop-opacity="0.7"/>
      <stop offset="100%" stop-color="#cfe7ff" stop-opacity="0.05"/>
    </linearGradient>
    <linearGradient id="iceB" x1="1" y1="0" x2="0" y2="1">
      <stop offset="0%" stop-color="white" stop-opacity="0.58"/>
      <stop offset="100%" stop-color="#cfe7ff" stop-opacity="0.04"/>
    </linearGradient>
    <filter id="blurShadow" x="-20%" y="-20%" width="140%" height="140%">
      <feDropShadow dx="0" dy="10" stdDeviation="14" flood-color="white" flood-opacity="0.08"/>
    </filter>
  </defs>

  <g filter="url(#blurShadow)">
    <g opacity="0.82" transform="translate(70 215) rotate(-18 145 145)">
      <rect x="22" y="22" width="246" height="246" rx="34" fill="url(#iceA)"/>
      <rect x="22" y="22" width="246" height="246" rx="34" stroke="white" stroke-opacity="0.22" stroke-width="10"/>
      <path d="M65 42L230 42L250 72L250 230L72 250L42 210L42 68L65 42Z" stroke="white" stroke-opacity="0.18" stroke-width="8"/>
      <path d="M45 124L250 124M124 45L124 250" stroke="white" stroke-opacity="0.1" stroke-width="7"/>
      <path d="M70 66L236 236" stroke="white" stroke-opacity="0.08" stroke-width="7"/>
      <ellipse cx="115" cy="95" rx="64" ry="38" fill="white" fill-opacity="0.12"/>
    </g>

    <g opacity="0.74" transform="translate(430 120) rotate(14 120 120)">
      <rect x="18" y="18" width="210" height="210" rx="30" fill="url(#iceB)"/>
      <rect x="18" y="18" width="210" height="210" rx="30" stroke="white" stroke-opacity="0.2" stroke-width="9"/>
      <path d="M56 30L190 30L215 62L200 204L46 220L30 184L30 62L56 30Z" stroke="white" stroke-opacity="0.14" stroke-width="7"/>
      <path d="M34 110L210 110M112 34L112 210" stroke="white" stroke-opacity="0.08" stroke-width="6"/>
      <ellipse cx="138" cy="70" rx="54" ry="28" fill="white" fill-opacity="0.1"/>
    </g>

    <g opacity="0.66" transform="translate(520 455) rotate(-8 92 92)">
      <rect x="14" y="14" width="156" height="156" rx="24" fill="url(#iceA)"/>
      <rect x="14" y="14" width="156" height="156" rx="24" stroke="white" stroke-opacity="0.18" stroke-width="8"/>
      <path d="M40 22L138 22L162 48L160 140L48 162L22 132L22 52L40 22Z" stroke="white" stroke-opacity="0.12" stroke-width="6"/>
      <path d="M30 88L156 88M88 28L88 156" stroke="white" stroke-opacity="0.07" stroke-width="5"/>
      <ellipse cx="92" cy="60" rx="34" ry="18" fill="white" fill-opacity="0.08"/>
    </g>
  </g>
</svg>
